<svg version="1.0" xmlns="http://www.w3.org/2000/svg" width="1024.000000pt" height="1024.000000pt" viewBox="-3 -3 1030 1030" preserveAspectRatio="xMidYMid meet" transform="matrix(1, 0, 0, 1, 0, 0)"><g id="deeditor_bgCarrier" stroke-width="0">
    <rect id="dee_c_e" x="-3" y="-3" width="1030" height="1030" rx="0" fill="none" strokewidth="0"/>
  </g>
<metadata fill="#f9cd86">
Created by potrace 1.16, written by Peter Selinger 2001-2019
</metadata>
<g transform="translate(0.000000,1024.000000) scale(0.100000,-0.100000)" fill="#f9cd86" stroke="none">
<path d="M5065 8449 c-747 -70 -1424 -358 -1965 -835 -558 -492 -925 -1147 -1059 -1889 -67 -373 -51 -878 39 -1250 311 -1293 1386 -2290 2710 -2515 203 -34 338 -43 619 -37 286 5 407 18 649 68 440 91 896 291 1262 552 761 542 1261 1393 1372 2332 18 158 16 518 -6 695 -42 355 -154 725 -316 1050 -240 479 -614 918 -1040 1220 -493 349 -1072 556 -1705 610 -140 11 -430 11 -560 -1z m710 -283 c517 -83 918 -232 1301 -484 147 -97 203 -142 159 -129 -62 19 -120 27 -205 27 -163 0 -275 -42 -370 -139 -68 -70 -105 -142 -128 -249 l-17 -82 -103 69 c-116 78 -173 97 -262 88 -108 -12 -208 -65 -306 -162 -44 -44 -104 -124 -104 -140 0 -2 34 11 76 30 108 49 197 75 261 75 97 0 128 -15 227 -115 52 -52 111 -101 137 -113 145 -70 323 -36 496 93 61 47 116 96 111 100 -2 3 -20 0 -39 -5 -44 -13 -249 -60 -261 -60 -13 0 -2 96 19 170 52 188 246 321 514 355 l55 7 60 -53 c171 -152 310 -304 445 -484 42 -55 78 -105 82 -111 4 -8 -31 -11 -121 -10 -191 1 -309 -37 -416 -135 -92 -84 -152 -207 -171 -351 -3 -27 -10 -48 -14 -48 -4 0 -40 20 -81 45 -124 75 -205 90 -311 59 -85 -25 -174 -80 -247 -153 -62 -62 -112 -134 -102 -145 3 -2 41 13 85 35 124 61 204 82 288 77 84 -5 124 -27 202 -108 119 -125 296 -143 489 -50 78 37 258 172 245 184 -2 2 -58 -11 -124 -30 -66 -19 -140 -38 -164 -41 l-44 -6 7 74 c13 136 50 228 124 310 76 85 170 141 327 195 81 28 66 39 150 -97 113 -182 212 -407 285 -651 74 -247 107 -445 116 -703 20 -540 -109 -1045 -396 -1557 -380 -677 -1010 -1183 -1775 -1427 -344 -110 -810 -163 -1160 -131 -528 48 -973 195 -1408 464 -524 324 -977 849 -1216 1409 -180 422 -262 882 -233 1305 53 747 379 1434 933 1966 383 367 857 629 1375 760 117 30 350 71 474 85 130 15 615 6 735 -13z" fill="#f9cd86"/>
<path d="M5562 7860 c-19 -12 -51 -57 -92 -131 -105 -188 -335 -650 -354 -712 -16 -51 -17 -63 -4 -95 18 -51 73 -78 122 -62 49 16 63 36 91 134 36 124 67 193 221 495 145 285 155 318 112 358 -33 29 -62 33 -96 13z" fill="#f9cd86"/>
<path d="M4531 7854 c-42 -18 -51 -47 -51 -172 0 -204 42 -705 64 -771 23 -70 104 -95 166 -51 44 31 47 71 16 198 -44 184 -53 257 -65 560 -7 180 -9 194 -30 216 -28 30 -61 37 -100 20z" fill="#f9cd86"/>
<path d="M3535 7448 c-31 -17 -45 -39 -45 -72 0 -66 121 -238 312 -446 68 -74 150 -168 182 -208 65 -82 89 -97 140 -88 68 13 107 96 75 159 -6 12 -91 101 -188 197 -97 96 -216 227 -266 290 -144 183 -160 196 -210 168z" fill="#f9cd86"/>
<path d="M6155 6934 c-14 -15 -25 -32 -25 -38 0 -6 -29 -24 -64 -39 -35 -16 -72 -37 -82 -48 -22 -24 -19 -24 70 6 47 16 97 25 136 25 63 0 120 22 120 46 0 7 -17 26 -37 43 -47 39 -85 40 -118 5z" fill="#f9cd86"/>
<path d="M2909 6735 c-15 -8 -32 -29 -38 -46 -31 -89 64 -150 457 -294 101 -38 158 -65 196 -94 65 -50 103 -63 150 -50 49 14 76 51 76 106 0 78 -29 97 -290 187 -124 43 -286 106 -360 142 -75 35 -142 64 -150 64 -8 -1 -27 -7 -41 -15z" fill="#f9cd86"/>
<path d="M4795 6625 c-445 -73 -791 -305 -990 -665 -45 -80 -117 -283 -130 -361 l-5 -35 -313 0 c-337 1 -391 -5 -577 -60 -74 -23 -230 -81 -312 -117 l-28 -12 0 -182 0 -183 38 0 c21 0 125 9 232 20 292 30 434 50 985 141 648 108 760 125 1563 239 399 57 672 119 672 152 0 4 -460 9 -1022 10 -904 3 -1023 5 -1019 18 77 312 276 563 567 712 282 145 638 168 936 62 217 -78 424 -240 552 -433 57 -85 121 -224 137 -298 7 -29 16 -53 20 -53 5 0 51 14 103 30 107 35 102 20 59 155 -107 335 -388 633 -728 771 -48 20 -139 49 -204 66 -101 26 -138 30 -281 34 -114 2 -193 -1 -255 -11z" fill="#f9cd86"/>
<path d="M6882 6130 c-12 -5 -29 -25 -39 -44 -12 -27 -28 -40 -69 -56 -48 -20 -111 -70 -87 -70 6 0 31 9 57 21 26 11 79 23 119 26 75 6 113 20 137 48 13 15 10 21 -23 51 -38 35 -55 39 -95 24z" fill="#f9cd86"/>
<path d="M3260 5933 c-14 -2 -106 -15 -205 -29 -338 -47 -417 -63 -442 -86 -49 -46 -12 -138 55 -138 16 0 112 9 213 20 101 12 264 22 362 23 l179 2 29 33 c34 37 38 79 12 123 -28 48 -106 68 -203 52z" fill="#f9cd86"/>
<path d="M8165 5584 c-33 -14 -68 -28 -78 -31 -17 -5 -16 -7 3 -20 11 -8 25 -11 30 -8 6 3 15 3 21 -1 8 -5 8 -9 -1 -14 -21 -13 55 -33 79 -21 17 9 19 8 16 -7 -2 -10 1 -25 6 -33 6 -10 9 -7 9 12 0 47 -13 149 -19 149 -3 0 -33 -12 -66 -26z m6 -43 c-12 -8 -51 -4 -51 5 0 2 15 4 33 4 22 0 28 -3 18 -9z m54 -31 c-3 -5 -16 -10 -28 -9 -21 0 -21 1 -2 9 28 12 37 12 30 0z" fill="#f9cd86"/>
<path d="M6905 5564 c-16 -2 -79 -9 -140 -15 -117 -11 -258 -40 -469 -95 -478 -125 -551 -140 -921 -190 -568 -75 -1092 -154 -1530 -229 -626 -107 -1038 -167 -1307 -191 -43 -4 -78 -10 -78 -15 0 -4 4 -30 9 -56 5 -26 17 -90 27 -141 l17 -93 41 6 c421 56 772 121 1246 231 135 31 322 74 415 95 349 80 902 180 1270 228 228 30 246 35 485 111 410 132 630 178 900 187 126 4 192 2 280 -11 123 -18 274 -54 355 -84 28 -11 88 -22 134 -26 150 -12 389 -73 569 -145 l52 -21 0 64 0 64 -47 30 c-73 47 -259 137 -354 172 -220 80 -445 118 -734 125 -104 2 -203 2 -220 -1z" fill="#f9cd86"/>
<path d="M8206 5471 c-3 -5 0 -11 7 -14 8 -3 14 1 14 9 0 16 -13 19 -21 5z" fill="#f9cd86"/>
<path d="M6840 5173 c-383 -26 -784 -155 -1285 -412 -184 -95 -993 -557 -1056 -603 -24 -18 -23 -18 26 -13 107 11 400 25 512 25 l117 0 120 67 c67 36 137 75 156 86 388 220 705 354 933 393 128 22 353 15 457 -16 314 -91 515 -377 446 -636 -41 -156 -161 -251 -330 -261 l-81 -5 52 27 c104 53 166 161 166 290 1 131 -56 234 -173 312 -101 68 -179 88 -335 87 -146 0 -236 -18 -402 -80 -110 -41 -408 -182 -496 -236 -52 -32 -56 -36 -35 -42 13 -3 43 -6 68 -6 25 0 88 -7 140 -15 205 -33 348 -81 418 -140 33 -28 78 -102 68 -113 -3 -3 -45 7 -93 21 -523 157 -1409 153 -2793 -13 -91 -11 -263 -31 -384 -45 -120 -13 -221 -26 -223 -29 -3 -3 6 -24 20 -48 26 -44 167 -240 210 -291 l24 -28 249 50 c359 72 679 116 1184 163 183 17 1029 17 1210 0 562 -52 956 -138 1313 -286 101 -42 252 -116 310 -153 l39 -25 40 39 c112 107 299 346 392 500 170 283 215 567 131 818 -86 258 -340 485 -635 569 -128 36 -346 59 -480 49z" fill="#f9cd86"/>
<path d="M7947 4982 c124 -138 189 -249 223 -381 10 -38 19 -57 23 -48 5 14 48 266 61 359 l5 37 -79 30 c-77 30 -212 72 -280 86 -34 7 -33 7 47 -83z" fill="#f9cd86"/>
<path d="M5000 4851 c-157 -32 -406 -88 -555 -124 -326 -80 -348 -85 -645 -148 -405 -85 -1120 -209 -1212 -209 -16 0 -28 -1 -28 -3 0 -12 71 -183 113 -271 l51 -109 109 7 c306 18 836 92 985 136 234 69 445 172 942 458 129 75 309 178 400 229 90 51 155 93 145 92 -11 0 -148 -26 -305 -58z" fill="#f9cd86"/>
<path d="M4720 3459 c-416 -19 -964 -83 -1288 -150 -171 -35 -182 -38 -182 -48 0 -14 212 -198 323 -280 445 -330 920 -523 1446 -587 216 -26 821 -7 821 26 0 24 -903 381 -1278 505 -46 15 -82 29 -80 31 11 10 465 -55 673 -97 295 -60 657 -178 881 -289 l154 -76 123 44 c67 24 130 46 140 49 9 3 17 9 17 14 0 20 -867 466 -943 484 -15 4 -26 9 -24 12 6 5 203 -30 381 -67 274 -59 588 -161 767 -250 l97 -48 123 75 c124 75 168 104 291 197 l68 51 -26 13 c-127 67 -404 167 -637 231 -489 135 -1154 193 -1847 160z" fill="#f9cd86"/>
</g>
</svg>